<?xml version="1.0" encoding="iso-8859-1"?>
<!-- Generator: Adobe Illustrator 19.0.0, SVG Export Plug-In . SVG Version: 6.00 Build 0)  -->
<svg version="1.1" id="Layer_1" xmlns="http://www.w3.org/2000/svg" xmlns:xlink="http://www.w3.org/1999/xlink" x="0px" y="0px"
	 viewBox="0 0 512 512" style="enable-background:new 0 0 512 512;" xml:space="preserve">
<g>
	<g>
		<g>
			<path d="M173.781,280.469c-4.16,4.16-4.16,10.923,0,15.083c2.091,2.069,4.821,3.115,7.552,3.115c2.731,0,5.461-1.045,7.531-3.115
				l64-64c0.981-0.981,1.771-2.176,2.304-3.477c0.299-0.747,0.341-1.515,0.469-2.304c0.107-0.597,0.363-1.152,0.363-1.771
				c0-0.811-0.299-1.536-0.469-2.283c-0.128-0.576-0.128-1.195-0.363-1.749c-0.555-1.344-1.365-2.539-2.368-3.563l-63.936-63.936
				c-4.16-4.16-10.923-4.16-15.083,0c-4.16,4.16-4.16,10.923,0,15.083l45.76,45.781H32c-5.888,0-10.667,4.779-10.667,10.667
				S26.112,234.667,32,234.667h187.584L173.781,280.469z"/>
			<path d="M444.608,0c-1.643,0-3.243,0.32-4.843,0.491C438.955,0.299,438.187,0,437.333,0h-256C151.936,0,128,23.936,128,53.333
				V160c0,5.888,4.779,10.667,10.667,10.667s10.667-4.779,10.667-10.667V53.333c0-17.643,14.357-32,32-32h204.032l-80.107,34.325
				c-16.96,7.275-27.925,23.893-27.925,42.347v328.661h-96c-15.339,0-28.373-10.667-31.552-15.083l-0.448-123.627
				c-0.021-5.867-4.8-10.624-10.667-10.624c0,0-0.021,0-0.043,0c-5.888,0.021-10.645,4.821-10.624,10.709l0.491,124.309
				c-0.427,4.672,1.771,9.557,6.677,14.933c8.725,9.557,26.048,20.715,46.165,20.715h96v17.941
				c0,25.387,20.672,46.059,46.059,46.059c6.293,0,12.416-1.259,18.133-3.712l121.216-51.947
				c16.96-7.275,27.925-23.893,27.925-42.347V46.059C490.667,20.672,469.995,0,444.608,0z M469.333,413.995
				c0,9.899-5.888,18.837-14.997,22.72L333.12,488.661c-3.072,1.344-6.357,2.005-9.728,2.005c-13.632,0-24.725-11.093-24.725-24.725
				V98.005c0-9.899,5.888-18.837,14.997-22.72L434.88,23.339c3.072-1.344,6.357-2.005,9.728-2.005
				c13.632,0,24.725,11.093,24.725,24.725V413.995z"/>
			<path d="M330.667,234.667c-5.888,0-10.667,4.779-10.667,10.667V288c0,5.888,4.779,10.667,10.667,10.667
				s10.667-4.779,10.667-10.667v-42.667C341.333,239.445,336.555,234.667,330.667,234.667z"/>
		</g>
	</g>
</g>
<g>
</g>
<g>
</g>
<g>
</g>
<g>
</g>
<g>
</g>
<g>
</g>
<g>
</g>
<g>
</g>
<g>
</g>
<g>
</g>
<g>
</g>
<g>
</g>
<g>
</g>
<g>
</g>
<g>
</g>
</svg>
